# xmcd
#
# Track frame offsets:
#	150
#	17347
#	34442
#	52742
#	72542
#	90090
#	103295
#	119567
#	135995
#	149185
#	164192
#	177690
#	194925
#	209320
#	225000
#	241052
#	257022
#	271875
#
# Disc length: 3814
#
# Revision: 1
# Processed by: cddbd v1.5.1PL0 Copyright (c) Steve Scherf et al.
# Submitted via: CDex 1.51
# Normalized: r0:DSETVAR1,TSWAP
#
DISCID=0b0ee412
DTITLE=Various Artist - Conuntry Gold Collection 1985-1992
DYEAR=2000
DGENRE=Country
TTITLE0=KT Oslin - Come Next Monday
TTITLE1=Conway Twitty - Crazy in Love
TTITLE2=Lionel Cartwright - Leap of Faith
TTITLE3=Ronnie Milsap - Are Yu Lovin' Me Like I'm Lovin' You
TTITLE4=Collin Raye - Love Me
TTITLE5=Sammy Kershaw - Cadillac Style
TTITLE6=The Forester Sisters - Love Will
TTITLE7=Steve Wariner - The Tips of My Fingers
TTITLE8=John Anderson - Straight Tequila Night
TTITLE9=McBride and the Ride - Sacred Ground
TTITLE10=Brooks and Dunn - Brand New Man
TTITLE11=Earl Thomas Conley - Love Out Loud
TTITLE12=Mike Reid - Walk on Faith
TTITLE13=Doug Stone - In a Different Light
TTITLE14=Lorrie Morgan - Five Minutes
TTITLE15=Paul Overstreet - Daddy's Come Around
TTITLE16=Earl Thomas Conley and Keith Whittley - Brotherly Love
TTITLE17=Alan Jackson - I'd Love You All Over Again
EXTD=YEAR: 2000
EXTT0=
EXTT1=
EXTT2=
EXTT3=
EXTT4=
EXTT5=
EXTT6=
EXTT7=
EXTT8=
EXTT9=
EXTT10=
EXTT11=
EXTT12=
EXTT13=
EXTT14=
EXTT15=
EXTT16=
EXTT17=
PLAYORDER=
